<svg id='Gold_Bars_24' width='24' height='24' viewBox='0 0 24 24' xmlns='http://www.w3.org/2000/svg' xmlns:xlink='http://www.w3.org/1999/xlink'><rect width='24' height='24' stroke='none' fill='#000000' opacity='0'/>


<g transform="matrix(0.04 0 0 0.04 12 12)" >
<g style="" >
<g transform="matrix(1 0 0 1 -131.85 45.05)" >
<path style="stroke: none; stroke-width: 1; stroke-dasharray: none; stroke-linecap: butt; stroke-dashoffset: 0; stroke-linejoin: miter; stroke-miterlimit: 4; fill: rgb(254,191,16); fill-rule: nonzero; opacity: 1;" transform=" translate(-124.15, -301.05)" d="M 130.7 359.5 C 129.1 352.2 127.69999999999999 344.7 124.49999999999999 337.8 C 123.19999999999999 335 121.49999999999999 332.7 119.49999999999999 330.6 C 118.29999999999998 330.20000000000005 117.29999999999998 329.3 116.69999999999999 328.1 C 106.89999999999999 320.5 92.1 318.6 80.39999999999999 317 C 68.49999999999999 315.3 48.39999999999999 309.8 39.99999999999999 322 C 37.599999999999994 325.6 36.599999999999994 329.9 35.199999999999996 333.9 C 33.49999999999999 338.7 31.599999999999994 343.4 29.399999999999995 348 C 27.299999999999994 352.5 25.199999999999996 357 22.099999999999994 360.9 C 19.799999999999994 363.79999999999995 17.799999999999994 366.59999999999997 16.799999999999994 370 C 35.3 370.5 53.099999999999994 376 71.5 378 C 82.7 379.2 93.9 380.1 105 382 C 115.6 383.8 126.2 385.7 136.9 385.9 C 137.3 377.2 132.6 368 130.7 359.5 z M 162 291.1 C 149.9 289.5 137.7 288.40000000000003 125.7 286.5 C 122 285.9 118.2 285.2 114.5 285.1 C 112.2 285 108.6 284.5 106.5 285.70000000000005 C 103.9 287.30000000000007 101.2 286.70000000000005 99.5 285.1 C 98.9 286.1 98 286.90000000000003 96.7 287.5 C 86.3 291.8 76.80000000000001 297.9 67 303.3 C 72.9 303.90000000000003 78.9 304.90000000000003 84.4 305.7 C 97.30000000000001 307.59999999999997 111.60000000000001 310.3 122.30000000000001 317.7 C 135.60000000000002 311.09999999999997 148.70000000000002 304.3 161.5 296.7 C 164.1 295.09999999999997 166.8 293.59999999999997 169.4 292 C 166.9 291.8 164.5 291.5 162 291.1 z M 231.5 281.7 C 230 272.9 223.7 265.59999999999997 220 257.5 C 215 246.7 209.8 236 205.6 225 C 194.7 222.1 183.5 220.8 172.3 220 C 166.4 219.6 160.8 218.3 155 217.4 C 151.9 216.9 148.6 216.9 145.4 216.4 C 144.20000000000002 216.8 142.9 216.8 141.70000000000002 216.20000000000002 C 138.70000000000002 217.9 136.60000000000002 221.70000000000002 135.10000000000002 224.4 C 132.3 229.6 130.00000000000003 235 127.70000000000002 240.4 C 125.30000000000001 246 122.80000000000001 251.6 119.80000000000001 256.8 C 116.70000000000002 262.1 113.00000000000001 267.5 110.70000000000002 273.3 C 115.00000000000001 273.1 119.50000000000001 273.8 123.50000000000001 274.3 C 135.10000000000002 275.90000000000003 146.60000000000002 277.40000000000003 158.20000000000002 278.8 C 171.00000000000003 280.40000000000003 183.8 282 196.60000000000002 283.5 C 207.60000000000002 284.8 219.00000000000003 286.7 230.10000000000002 286.8 C 229.6 284.9 230.1 283 231.5 281.7 z" stroke-linecap="round" />
</g>
<g transform="matrix(1 0 0 1 57.65 12.42)" >
<path style="stroke: none; stroke-width: 1; stroke-dasharray: none; stroke-linecap: butt; stroke-dashoffset: 0; stroke-linejoin: miter; stroke-miterlimit: 4; fill: rgb(254,191,16); fill-rule: nonzero; opacity: 1;" transform=" translate(-313.65, -268.42)" d="M 429.3 205.1 C 429.7 200.1 424.6 194.4 422.1 190.4 C 419.1 185.6 417.1 180.4 415.1 175.1 C 410.6 163.5 404.90000000000003 150.6 391.70000000000005 146.9 C 385.40000000000003 145.1 378.90000000000003 144.5 372.6 142.8 C 365.70000000000005 140.9 358.90000000000003 138.20000000000002 351.90000000000003 137 C 344.70000000000005 135.8 338.6 137 331.90000000000003 139.7 C 325.3 142.39999999999998 319.1 144.39999999999998 312.20000000000005 146.2 C 297.50000000000006 149.89999999999998 283.70000000000005 156.1 269.6 161.5 C 255.70000000000002 166.8 241.70000000000002 172 227.8 177.4 C 213.70000000000002 182.8 199.70000000000002 188.20000000000002 185.60000000000002 193.5 C 175.50000000000003 197.2 165.40000000000003 201 155.50000000000003 205.5 C 158.60000000000002 206 161.80000000000004 206.7 164.90000000000003 207.3 C 171.30000000000004 208.5 177.90000000000003 208.60000000000002 184.40000000000003 209.3 C 190.80000000000004 210 197.30000000000004 210.8 203.60000000000002 212.4 C 204.70000000000002 212.70000000000002 205.90000000000003 212.9 207.10000000000002 213.20000000000002 C 207.90000000000003 212.20000000000002 209.10000000000002 211.50000000000003 210.60000000000002 211.20000000000002 C 231.3 207.10000000000002 250.90000000000003 197.50000000000003 270.8 190.9 C 280.90000000000003 187.5 291.1 184.3 301 180.5 C 305.6 178.7 310.2 176.9 314.6 174.8 C 316.40000000000003 174 318.40000000000003 172.60000000000002 320.6 171.4 C 321.5 170.3 322.8 169.6 324.70000000000005 169.6 L 326.20000000000005 169.6 C 333.70000000000005 169.6 334.70000000000005 181.29999999999998 327.1 181.29999999999998 C 329.5 181.29999999999998 325.20000000000005 182.6 324.70000000000005 182.79999999999998 C 323.70000000000005 183.29999999999998 322.70000000000005 183.79999999999998 321.70000000000005 184.29999999999998 C 319.50000000000006 185.39999999999998 317.30000000000007 186.39999999999998 315.1 187.39999999999998 C 310.6 189.39999999999998 306 191.2 301.3 192.89999999999998 C 291.3 196.49999999999997 281.2 199.79999999999998 271.1 203.2 C 253.00000000000003 209.29999999999998 235.3 217.29999999999998 216.70000000000002 221.79999999999998 C 216.70000000000002 221.89999999999998 216.8 221.99999999999997 216.8 222.1 C 221.4 233.7 226.20000000000002 245.79999999999998 232.4 256.6 C 237.1 264.8 242.70000000000002 273.20000000000005 243.4 282.70000000000005 C 254.70000000000002 277.6 267.3 275.00000000000006 278.7 270.50000000000006 C 296 263.70000000000005 313.4 256.90000000000003 330.59999999999997 250.00000000000006 C 347.7 243.10000000000005 364.7 236.10000000000005 381.99999999999994 229.70000000000005 C 398.3999999999999 223.70000000000005 413.8999999999999 215.10000000000005 430.8999999999999 210.60000000000005 C 430.99999999999994 210.60000000000005 431.0999999999999 210.60000000000005 431.2999999999999 210.50000000000006 C 430 209.1 429.1 207.3 429.3 205.1 z M 242 296.5 C 239.9 297.9 237.7 297.7 236 296.7 C 235.1 297.8 233.8 298.59999999999997 231.8 298.59999999999997 L 229.5 298.59999999999997 C 229.2 298.59999999999997 228.9 298.59999999999997 228.7 298.49999999999994 C 218.5 298.19999999999993 208.2 296.69999999999993 198.2 295.49999999999994 C 195.29999999999998 295.19999999999993 192.29999999999998 294.79999999999995 189.39999999999998 294.49999999999994 C 187.79999999999998 296.09999999999997 185.39999999999998 296.8999999999999 182.79999999999998 295.79999999999995 C 184.1 296.4 185.2 296.49999999999994 185.89999999999998 296.4 C 187.09999999999997 295.9 186.99999999999997 296.29999999999995 185.89999999999998 296.4 C 185.79999999999998 296.4 185.7 296.5 185.59999999999997 296.5 C 184.89999999999998 296.8 184.39999999999998 297 183.79999999999995 297.4 C 181.79999999999995 298.5 179.79999999999995 299.59999999999997 177.79999999999995 300.7 C 172.99999999999994 303.4 168.29999999999995 306.3 163.59999999999997 309.09999999999997 C 152.99999999999997 315.29999999999995 142.19999999999996 320.79999999999995 131.19999999999996 326.29999999999995 C 132.59999999999997 328.19999999999993 133.89999999999995 330.29999999999995 134.99999999999997 332.69999999999993 C 138.69999999999996 340.79999999999995 140.29999999999998 349.5999999999999 142.39999999999998 358.19999999999993 C 144.49999999999997 366.79999999999995 147.89999999999998 374.8999999999999 148.59999999999997 383.5999999999999 C 152.69999999999996 380.9999999999999 156.99999999999997 378.7999999999999 161.09999999999997 376.3999999999999 C 164.09999999999997 374.5999999999999 167.19999999999996 372.7999999999999 170.09999999999997 370.69999999999993 C 171.09999999999997 369.99999999999994 172.19999999999996 369.19999999999993 173.09999999999997 368.29999999999995 C 173.19999999999996 368.19999999999993 173.29999999999995 368.09999999999997 173.39999999999998 367.99999999999994 C 173.89999999999998 364.3999999999999 176.89999999999998 363.19999999999993 179.7 363.69999999999993 C 180.5 362.29999999999995 181.29999999999998 360.8999999999999 182.1 359.49999999999994 C 186.5 351.79999999999995 189.7 343.59999999999997 194.29999999999998 336.09999999999997 C 198.7 328.99999999999994 204.2 321.59999999999997 212.29999999999998 318.59999999999997 C 212.39999999999998 318.59999999999997 212.39999999999998 318.59999999999997 212.49999999999997 318.49999999999994 C 212.59999999999997 317.8999999999999 212.89999999999998 317.19999999999993 213.29999999999998 316.49999999999994 C 219.2 307.29999999999995 231.2 303.29999999999995 240.79999999999998 299.09999999999997 C 246.49999999999997 296.59999999999997 251.7 293.2 256.79999999999995 289.9 C 251.6 291.7 246.5 293.6 242 296.5 z M 495.2 286.4 C 494.2 285.4 493.7 284.29999999999995 493.5 283.09999999999997 C 488 275.7 480.4 269.7 474.1 263.09999999999997 C 467.20000000000005 255.79999999999995 461.3 247.49999999999997 453.8 240.79999999999995 C 446.5 234.29999999999995 438.90000000000003 232.99999999999994 429.3 233.09999999999997 C 420.3 233.19999999999996 411.3 233.99999999999997 402.5 235.59999999999997 C 401.2 235.79999999999995 400 235.59999999999997 399.1 235.19999999999996 C 394.8 237.09999999999997 390.40000000000003 238.89999999999995 386 240.49999999999997 C 369.4 246.69999999999996 353 253.39999999999998 336.5 260 C 319.2 266.9 301.9 273.7 284.6 280.5 C 283.6 280.9 282.70000000000005 281.2 281.70000000000005 281.6 C 283.6 284.5 283.20000000000005 289 279.1 290.70000000000005 C 267.8 295.20000000000005 259 304.00000000000006 247.90000000000003 308.90000000000003 C 243.00000000000003 311.1 238.10000000000002 313.1 233.30000000000004 315.40000000000003 C 232.10000000000005 316.00000000000006 230.60000000000005 316.70000000000005 229.20000000000005 317.50000000000006 C 235.90000000000003 318.30000000000007 242.60000000000005 319.90000000000003 249.30000000000004 319.50000000000006 C 258.00000000000006 319.1000000000001 268.30000000000007 318.80000000000007 276.70000000000005 322.50000000000006 C 308.30000000000007 303.30000000000007 342.00000000000006 287.50000000000006 372.70000000000005 266.70000000000005 C 373.30000000000007 265.80000000000007 374.20000000000005 265.1 375.50000000000006 264.6 C 372.20000000000005 265.8 376.80000000000007 263.8 377.6000000000001 263.5 C 384.00000000000006 261.3 388.30000000000007 270.1 382.80000000000007 273.9 C 382.6000000000001 274 382.4000000000001 274.2 382.20000000000005 274.29999999999995 C 383.1 273.99999999999994 382.6 274.29999999999995 381.6 274.69999999999993 C 351.5 295.49999999999994 318.3 311.19999999999993 287 329.8999999999999 C 291.5 334.2999999999999 295.1 339.3999999999999 298.3 344.8999999999999 C 308.3 362.3999999999999 319.40000000000003 380.19999999999993 323 400.2999999999999 C 377.1 359.7999999999999 440.9 333.9999999999999 493.4 291.2999999999999 C 493.59999999999997 289.4999999999999 494.5 287.8999999999999 496.09999999999997 287.0999999999999 L 495.2 286.4 z" stroke-linecap="round" />
</g>
<g transform="matrix(1 0 0 1 -11.15 109.38)" >
<path style="stroke: none; stroke-width: 1; stroke-dasharray: none; stroke-linecap: butt; stroke-dashoffset: 0; stroke-linejoin: miter; stroke-miterlimit: 4; fill: rgb(254,191,16); fill-rule: nonzero; opacity: 1;" transform=" translate(-244.85, -365.38)" d="M 288.6 351.7 C 284.70000000000005 345.09999999999997 280.1 337.4 272.90000000000003 333.9 C 264.20000000000005 329.7 253.70000000000005 331.5 244.40000000000003 331.59999999999997 C 234.60000000000002 331.7 222.20000000000005 324.99999999999994 213.30000000000004 331.49999999999994 C 207.50000000000003 335.69999999999993 203.90000000000003 342.3999999999999 200.70000000000005 348.69999999999993 C 193.70000000000005 362.3999999999999 186.10000000000005 375.79999999999995 178.90000000000003 389.3999999999999 C 222.60000000000002 390.49999999999994 265.40000000000003 401.5999999999999 309.1 402.0999999999999 C 309.40000000000003 401.19999999999993 310 400.3999999999999 310.8 399.7999999999999 C 307.3 382.5 297.3 366.7 288.6 351.7 z" stroke-linecap="round" />
</g>
<g transform="matrix(1 0 0 1 -69.73 40.29)" >
<path style="stroke: none; stroke-width: 1; stroke-dasharray: none; stroke-linecap: butt; stroke-dashoffset: 0; stroke-linejoin: miter; stroke-miterlimit: 4; fill: rgb(1,1,1); fill-rule: nonzero; opacity: 1;" transform=" translate(-186.27, -296.29)" d="M 185.8 296.4 C 187 296.4 187.1 295.9 185.8 296.4 L 185.8 296.4 z" stroke-linecap="round" />
</g>
<g transform="matrix(1 0 0 1 -0.33 15)" >
<path style="stroke: none; stroke-width: 1; stroke-dasharray: none; stroke-linecap: butt; stroke-dashoffset: 0; stroke-linejoin: miter; stroke-miterlimit: 4; fill: rgb(1,1,1); fill-rule: nonzero; opacity: 1;" transform=" translate(-255.67, -271)" d="M 505 288.4 C 506.8 286.5 507.6 283.5 506 280.9 C 500.1 270.79999999999995 490.3 263.9 482.6 255.2 C 475.3 247.1 468.5 238.39999999999998 460.3 231.1 C 453.40000000000003 224.9 444.5 222.1 435.1 221.29999999999998 C 439.6 219.79999999999998 439.40000000000003 214.7 436.70000000000005 211.99999999999997 C 438.70000000000005 211.69999999999996 440.50000000000006 210.19999999999996 440.70000000000005 207.39999999999998 C 441.6 195.29999999999998 432.00000000000006 186.7 427.90000000000003 176.09999999999997 C 422.90000000000003 163.39999999999998 418.00000000000006 149.09999999999997 406.1 141.19999999999996 C 394.20000000000005 133.19999999999996 378.70000000000005 132.79999999999995 365.3 128.59999999999997 C 358 126.29999999999997 350.8 124.49999999999997 343.1 124.79999999999997 C 335.40000000000003 125.09999999999997 328 128.69999999999996 321 131.59999999999997 C 313.9 134.49999999999997 306.2 135.59999999999997 298.9 137.89999999999998 C 291.4 140.2 284.29999999999995 143.39999999999998 277 146.2 C 261.2 152.29999999999998 245.3 158.2 229.5 164.29999999999998 C 214.1 170.2 198.8 176.2 183.4 181.89999999999998 C 168.4 187.39999999999998 153.6 193.09999999999997 139.4 200.49999999999997 C 137.1 201.69999999999996 136.4 203.59999999999997 136.70000000000002 205.49999999999997 C 127.30000000000001 210.19999999999996 122.20000000000002 223.09999999999997 118.40000000000002 231.89999999999998 C 115.80000000000003 238.09999999999997 113.10000000000002 244.29999999999998 109.90000000000002 250.2 C 105.30000000000003 258.59999999999997 99.80000000000003 266.3 97.40000000000002 275.7 C 97.30000000000003 276.09999999999997 97.30000000000003 276.4 97.20000000000002 276.7 C 96.00000000000001 276 94.40000000000002 275.9 92.70000000000002 276.59999999999997 C 75.70000000000002 283.59999999999997 61.100000000000016 295.4 43.600000000000016 301.09999999999997 C 40.600000000000016 302.09999999999997 39.500000000000014 304.59999999999997 39.80000000000002 307.09999999999997 C 37.600000000000016 308.29999999999995 35.50000000000002 309.7 33.50000000000002 311.49999999999994 C 25.90000000000002 318.49999999999994 24.300000000000022 330.3999999999999 20.40000000000002 339.3999999999999 C 17.80000000000002 345.3999999999999 14.90000000000002 350.99999999999994 11.00000000000002 356.19999999999993 C 7.600000000000019 360.79999999999995 4.90000000000002 365.79999999999995 4.5000000000000195 371.5999999999999 C 4.40000000000002 373.19999999999993 4.90000000000002 374.5999999999999 5.600000000000019 375.5999999999999 C 5.600000000000019 378.69999999999993 7.700000000000019 381.8999999999999 11.700000000000019 381.69999999999993 C 32.30000000000002 380.8999999999999 52.30000000000002 387.99999999999994 72.70000000000002 389.8999999999999 C 83.50000000000001 390.8999999999999 94.00000000000001 392.0999999999999 104.70000000000002 393.8999999999999 C 116.00000000000001 395.7999999999999 127.20000000000002 397.5999999999999 138.70000000000002 397.69999999999993 C 140.60000000000002 397.69999999999993 141.9 396.99999999999994 142.8 395.8999999999999 C 144.5 397.99999999999994 147.4 398.8999999999999 150.10000000000002 396.69999999999993 C 155.3 392.5999999999999 161.40000000000003 389.49999999999994 167.10000000000002 386.29999999999995 C 166.00000000000003 388.29999999999995 165.00000000000003 390.4 163.90000000000003 392.49999999999994 C 161.20000000000005 397.79999999999995 167.20000000000005 402.19999999999993 171.50000000000003 400.49999999999994 C 172.20000000000002 400.79999999999995 173.00000000000003 400.99999999999994 173.90000000000003 400.99999999999994 C 220.10000000000002 401.19999999999993 265.30000000000007 413.59999999999997 311.5 413.79999999999995 C 312.2 413.79999999999995 312.9 413.69999999999993 313.4 413.49999999999994 C 314.7 416.59999999999997 318.29999999999995 418.69999999999993 321.79999999999995 415.99999999999994 C 378.99999999999994 370.99999999999994 448.4 344.49999999999994 504.19999999999993 297.5999999999999 C 507.7 294.9 507.5 290.6 505 288.4 z M 185.4 193.5 C 199.5 188.3 213.6 182.9 227.60000000000002 177.4 C 241.50000000000003 172 255.50000000000003 166.8 269.40000000000003 161.5 C 283.50000000000006 156.1 297.3 149.9 312.00000000000006 146.2 C 318.90000000000003 144.39999999999998 325.1000000000001 142.39999999999998 331.70000000000005 139.7 C 338.40000000000003 137 344.50000000000006 135.7 351.70000000000005 137 C 358.80000000000007 138.2 365.50000000000006 141 372.40000000000003 142.8 C 378.70000000000005 144.5 385.3 145.10000000000002 391.50000000000006 146.9 C 404.70000000000005 150.6 410.40000000000003 163.5 414.90000000000003 175.1 C 417.00000000000006 180.4 418.90000000000003 185.6 421.90000000000003 190.4 C 424.40000000000003 194.4 429.50000000000006 200 429.1 205.1 C 428.90000000000003 207.29999999999998 429.8 209 431.1 210.2 C 431 210.2 430.90000000000003 210.2 430.70000000000005 210.29999999999998 C 413.80000000000007 214.7 398.20000000000005 223.39999999999998 381.80000000000007 229.39999999999998 C 364.50000000000006 235.7 347.50000000000006 242.79999999999998 330.4000000000001 249.7 C 313.1000000000001 256.59999999999997 295.80000000000007 263.4 278.5000000000001 270.2 C 267.10000000000014 274.7 254.5000000000001 277.3 243.2000000000001 282.4 C 242.5000000000001 272.79999999999995 236.9000000000001 264.5 232.2000000000001 256.29999999999995 C 226.0000000000001 245.49999999999994 221.1000000000001 233.39999999999995 216.6000000000001 221.79999999999995 C 216.6000000000001 221.69999999999996 216.5000000000001 221.59999999999997 216.5000000000001 221.49999999999994 C 235.1000000000001 216.99999999999994 252.80000000000013 208.99999999999994 270.9000000000001 202.89999999999995 C 281.0000000000001 199.49999999999994 291.1000000000001 196.29999999999995 301.1000000000001 192.59999999999994 C 305.80000000000007 190.89999999999995 310.4000000000001 189.09999999999994 314.9000000000001 187.09999999999994 C 317.1000000000001 186.09999999999994 319.30000000000007 185.09999999999994 321.5000000000001 183.99999999999994 C 322.5000000000001 183.49999999999994 323.5000000000001 182.99999999999994 324.5000000000001 182.49999999999994 C 324.9000000000001 182.29999999999995 329.3000000000001 180.99999999999994 326.9000000000001 180.99999999999994 C 334.5000000000001 180.99999999999994 333.5000000000001 169.29999999999995 326.0000000000001 169.29999999999995 L 324.5000000000001 169.29999999999995 C 322.60000000000014 169.29999999999995 321.2000000000001 169.99999999999994 320.4000000000001 171.09999999999997 C 318.30000000000007 172.19999999999996 316.2000000000001 173.59999999999997 314.4000000000001 174.49999999999997 C 309.9000000000001 176.59999999999997 305.4000000000001 178.39999999999998 300.80000000000007 180.19999999999996 C 290.9000000000001 183.99999999999997 280.70000000000005 187.19999999999996 270.6000000000001 190.59999999999997 C 250.60000000000008 197.19999999999996 231.00000000000009 206.79999999999995 210.4000000000001 210.89999999999998 C 208.9000000000001 211.2 207.7000000000001 211.99999999999997 206.9000000000001 212.89999999999998 C 205.7000000000001 212.59999999999997 204.50000000000009 212.39999999999998 203.4000000000001 212.09999999999997 C 197.10000000000008 210.59999999999997 190.7000000000001 209.69999999999996 184.2000000000001 208.99999999999997 C 177.7000000000001 208.29999999999998 171.1000000000001 208.29999999999998 164.7000000000001 206.99999999999997 C 161.6000000000001 206.39999999999998 158.5000000000001 205.69999999999996 155.3000000000001 205.19999999999996 C 165.2 201 175.3 197.2 185.4 193.5 z M 119.6 256.8 C 122.69999999999999 251.5 125.19999999999999 246 127.5 240.4 C 129.8 235 132 229.6 134.9 224.4 C 136.4 221.70000000000002 138.5 217.8 141.5 216.20000000000002 C 142.8 216.8 144.1 216.8 145.2 216.4 C 148.39999999999998 216.9 151.7 216.9 154.79999999999998 217.4 C 160.6 218.4 166.2 219.6 172.1 220 C 183.29999999999998 220.8 194.5 222.2 205.39999999999998 225 C 209.7 236.1 214.79999999999998 246.8 219.79999999999998 257.5 C 223.6 265.6 229.79999999999998 272.9 231.29999999999998 281.7 C 229.99999999999997 282.9 229.49999999999997 284.9 229.79999999999998 286.8 C 218.7 286.7 207.29999999999998 284.8 196.29999999999998 283.5 C 183.49999999999997 282 170.7 280.4 157.89999999999998 278.8 C 146.29999999999998 277.40000000000003 134.7 275.90000000000003 123.19999999999997 274.3 C 119.29999999999997 273.8 114.79999999999997 273.1 110.39999999999998 273.3 C 112.8 267.5 116.5 262.1 119.6 256.8 z M 96.6 287.6 C 97.89999999999999 287.1 98.8 286.20000000000005 99.39999999999999 285.20000000000005 C 101.19999999999999 286.80000000000007 103.8 287.50000000000006 106.39999999999999 285.80000000000007 C 108.39999999999999 284.50000000000006 112.1 285.1000000000001 114.39999999999999 285.20000000000005 C 118.1 285.30000000000007 121.89999999999999 286.00000000000006 125.6 286.6 C 137.7 288.5 149.79999999999998 289.6 161.89999999999998 291.20000000000005 C 164.39999999999998 291.50000000000006 166.79999999999998 291.80000000000007 169.29999999999998 292.1 C 166.6 293.6 163.99999999999997 295.20000000000005 161.39999999999998 296.8 C 148.59999999999997 304.40000000000003 135.49999999999997 311.1 122.19999999999997 317.8 C 111.49999999999997 310.40000000000003 97.19999999999997 307.7 84.29999999999998 305.8 C 78.79999999999998 305 72.89999999999998 303.90000000000003 66.89999999999998 303.40000000000003 C 76.8 297.9 86.2 291.8 96.6 287.6 z M 105.1 382.1 C 93.89999999999999 380.20000000000005 82.8 379.3 71.6 378.1 C 53.199999999999996 376.1 35.39999999999999 370.5 16.89999999999999 370.1 C 17.89999999999999 366.8 19.89999999999999 364 22.199999999999992 361 C 25.299999999999994 357.1 27.29999999999999 352.5 29.499999999999993 348.1 C 31.699999999999992 343.5 33.599999999999994 338.8 35.29999999999999 334 C 36.69999999999999 330 37.69999999999999 325.7 40.09999999999999 322.1 C 48.39999999999999 309.90000000000003 68.6 315.5 80.49999999999999 317.1 C 92.29999999999998 318.70000000000005 107.1 320.6 116.79999999999998 328.20000000000005 C 117.39999999999998 329.40000000000003 118.39999999999998 330.30000000000007 119.59999999999998 330.70000000000005 C 121.59999999999998 332.70000000000005 123.29999999999998 335.1 124.59999999999998 337.90000000000003 C 127.69999999999997 344.70000000000005 129.09999999999997 352.3 130.79999999999998 359.6 C 132.7 368.1 137.39999999999998 377.3 137.2 386.20000000000005 C 126.3 385.8 115.7 383.9 105.1 382.1 z M 173.3 368.2 C 173.20000000000002 368.3 173.10000000000002 368.3 173 368.5 C 172.1 369.4 171 370.2 170 370.9 C 167.1 373 164.1 374.79999999999995 161 376.59999999999997 C 156.9 378.99999999999994 152.6 381.2 148.5 383.79999999999995 C 147.8 375.09999999999997 144.4 366.9 142.3 358.4 C 140.20000000000002 349.79999999999995 138.70000000000002 341 134.9 332.9 C 133.8 330.59999999999997 132.6 328.5 131.1 326.5 C 142 321.1 152.9 315.5 163.5 309.3 C 168.2 306.5 172.9 303.7 177.7 300.90000000000003 C 179.7 299.8 181.7 298.6 183.7 297.6 C 184.29999999999998 297.3 184.79999999999998 297 185.5 296.70000000000005 C 185.6 296.70000000000005 185.7 296.6 185.8 296.6 C 185.10000000000002 296.6 184.10000000000002 296.5 182.70000000000002 296 C 185.3 297.1 187.70000000000002 296.3 189.3 294.7 C 192.20000000000002 295 195.20000000000002 295.4 198.10000000000002 295.7 C 208.20000000000002 296.9 218.50000000000003 298.4 228.60000000000002 298.7 C 228.90000000000003 298.7 229.10000000000002 298.8 229.40000000000003 298.8 L 231.70000000000005 298.8 C 233.60000000000005 298.8 235.00000000000006 298 235.90000000000003 296.90000000000003 C 237.60000000000002 297.90000000000003 239.70000000000005 298.1 241.90000000000003 296.70000000000005 C 246.40000000000003 293.80000000000007 251.50000000000003 292.00000000000006 256.6 290.40000000000003 C 251.40000000000003 293.8 246.3 297.20000000000005 240.60000000000002 299.6 C 231.00000000000003 303.8 219.10000000000002 307.70000000000005 213.10000000000002 317 C 212.70000000000002 317.7 212.40000000000003 318.4 212.3 319 C 212.20000000000002 319 212.20000000000002 319 212.10000000000002 319.1 C 204.00000000000003 322.1 198.50000000000003 329.5 194.10000000000002 336.6 C 189.50000000000003 344.1 186.20000000000002 352.40000000000003 181.90000000000003 360 C 181.10000000000002 361.4 180.30000000000004 362.8 179.50000000000003 364.2 C 176.8 363.3 173.8 364.6 173.3 368.2 z M 309.2 402 C 265.5 401.5 222.7 390.4 179 389.3 C 186.2 375.7 193.8 362.3 200.8 348.6 C 204 342.3 207.60000000000002 335.70000000000005 213.4 331.40000000000003 C 222.3 324.90000000000003 234.70000000000002 331.6 244.5 331.50000000000006 C 253.8 331.40000000000003 264.3 329.6000000000001 273 333.80000000000007 C 280.2 337.30000000000007 284.8 345.00000000000006 288.7 351.6000000000001 C 297.4 366.6000000000001 307.4 382.50000000000006 311 399.7000000000001 C 310.1 400.3 309.5 401.1 309.2 402 z M 493.4 291.5 C 440.79999999999995 334.2 377.09999999999997 360 323 400.5 C 319.5 380.4 308.3 362.6 298.3 345.1 C 295.1 339.5 291.5 334.40000000000003 287 330.1 C 318.4 311.40000000000003 351.5 295.70000000000005 381.6 274.90000000000003 C 382.5 274.50000000000006 383.1 274.20000000000005 382.20000000000005 274.50000000000006 C 382.40000000000003 274.40000000000003 382.6 274.20000000000005 382.80000000000007 274.1000000000001 C 388.30000000000007 270.30000000000007 383.9000000000001 261.50000000000006 377.6000000000001 263.7000000000001 C 376.80000000000007 264.0000000000001 372.1000000000001 265.9000000000001 375.50000000000006 264.8000000000001 C 374.20000000000005 265.3000000000001 373.30000000000007 266.0000000000001 372.70000000000005 266.90000000000015 C 342.00000000000006 287.70000000000016 308.30000000000007 303.50000000000017 276.70000000000005 322.70000000000016 C 268.40000000000003 319.00000000000017 258.1 319.3000000000002 249.30000000000004 319.70000000000016 C 242.60000000000005 320.00000000000017 235.90000000000003 318.50000000000017 229.20000000000005 317.70000000000016 C 230.70000000000005 316.90000000000015 232.10000000000005 316.20000000000016 233.30000000000004 315.60000000000014 C 238.10000000000005 313.20000000000016 243.00000000000003 311.20000000000016 247.90000000000003 309.10000000000014 C 258.90000000000003 304.10000000000014 267.8 295.40000000000015 279.1 290.90000000000015 C 283.20000000000005 289.20000000000016 283.6 284.70000000000016 281.70000000000005 281.8000000000001 C 282.70000000000005 281.40000000000015 283.6 281.10000000000014 284.6 280.7000000000001 C 301.90000000000003 273.9000000000001 319.20000000000005 267.1000000000001 336.5 260.2000000000001 C 353 253.6000000000001 369.3 246.8000000000001 386 240.7000000000001 C 390.4 239.1000000000001 394.8 237.3000000000001 399.1 235.4000000000001 C 400 235.9000000000001 401.1 236.10000000000008 402.5 235.8000000000001 C 411.3 234.2000000000001 420.3 233.4000000000001 429.3 233.3000000000001 C 438.90000000000003 233.2000000000001 446.6 234.50000000000009 453.8 241.00000000000009 C 461.3 247.70000000000007 467.2 256.0000000000001 474.1 263.30000000000007 C 480.40000000000003 270.00000000000006 488 275.9000000000001 493.5 283.30000000000007 C 493.7 284.4000000000001 494.2 285.6000000000001 495.2 286.6000000000001 L 496.2 287.6000000000001 C 494.5 288.2 493.6 289.8 493.4 291.5 z" stroke-linecap="round" />
</g>
</g>
</g>
</svg>